<?xml version="1.0" encoding="UTF-8"?>
<svg version="1.1" xmlns="http://www.w3.org/2000/svg" width="960" height="960">
<path d="M0 0 C3.77213289 0.00020951 7.54425886 -0.00536569 11.31638825 -0.01005757 C18.66246197 -0.01825117 26.00852766 -0.02110726 33.35460558 -0.02166995 C39.3511939 -0.02215088 45.34777964 -0.02423377 51.34436715 -0.02737057 C68.48416162 -0.03614888 85.62394991 -0.04079478 102.76374664 -0.0400401 C103.68159399 -0.04000014 104.59944134 -0.03996019 105.54510224 -0.03991902 C106.46411923 -0.03987814 107.38313623 -0.03983726 108.33000223 -0.03979514 C123.1651847 -0.0393902 138.00034161 -0.04892871 152.83551671 -0.06305739 C168.20382613 -0.07757382 183.57212322 -0.08431922 198.94043964 -0.08346361 C207.51372113 -0.08313667 216.0869756 -0.08571455 224.66025078 -0.09664166 C255.67769616 -0.13421046 286.67371818 -0.14856296 317.67352021 1.04650676 C318.70887764 1.08619126 319.74423507 1.12587577 320.81096697 1.16676283 C396.13536416 4.1533649 481.62313971 9.54636251 539.17815888 64.14538372 C539.67283661 64.60751262 540.16751435 65.06964153 540.67718232 65.54577434 C595.79821672 117.30866572 603.39429777 199.42557652 607.30315888 270.77038372 C607.34177033 271.46703136 607.38038178 272.163679 607.42016327 272.88143718 C608.81737598 298.587486 609.33244819 324.29450122 609.32354259 350.03490424 C609.32333334 353.83430235 609.32890604 357.63369355 609.33360016 361.43308818 C609.34179898 368.83444306 609.3446501 376.23578996 609.34521254 383.637149 C609.34569323 389.67810621 609.34777494 395.71906087 609.35091317 401.76001728 C609.35969298 419.02146061 609.36433715 436.2828978 609.36358269 453.54434337 C609.36352276 454.93131757 609.36352276 454.93131757 609.36346161 456.34631145 C609.36340029 457.73505051 609.36340029 457.73505051 609.36333773 459.1518449 C609.36293278 474.09769738 609.37247134 489.04352449 609.38659998 503.98936965 C609.40111177 519.46725378 609.40786206 534.94512566 609.4070062 550.42301673 C609.40667911 559.05943836 609.40926294 567.69583319 609.42018425 576.33224857 C609.65137558 768.49387775 609.65137558 768.49387775 545.17815888 890.14538372 C544.48931611 890.88087444 544.48931611 890.88087444 543.78655732 891.63122356 C487.41312591 951.67797286 394.74473173 956.31258426 317.60394013 959.24596965 C316.50298382 959.28820643 315.40202752 959.33044322 314.2677089 959.3739599 C283.79587389 960.50584734 253.31524628 960.4404983 222.82721752 960.41598441 C216.8913178 960.41133846 210.95542953 960.41087535 205.01952851 960.41301525 C204.15944691 960.41332171 203.29936532 960.41362818 202.41322064 960.41394393 C200.66343971 960.41458368 198.91365877 960.41523212 197.16387784 960.41588911 C180.93526748 960.42152872 164.70668007 960.41513646 148.47807348 960.40428838 C134.69514778 960.39535879 120.91225584 960.39691265 107.12933075 960.4061259 C90.9401486 960.41694329 74.75098634 960.42098001 58.56180108 960.41490138 C56.82013047 960.41426459 55.07845986 960.41363584 53.33678925 960.41301525 C52.48089428 960.4127067 51.6249993 960.41239814 50.74316812 960.41208024 C44.84683913 960.41038723 38.95052343 960.41323327 33.05419648 960.41797435 C2.26590182 960.44048776 -28.50039436 960.42589633 -59.27105987 959.2420634 C-60.30767383 959.20243874 -61.34428779 959.16281407 -62.4123143 959.12198865 C-137.36851021 956.16017178 -223.75648986 950.9640676 -280.82184112 896.14538372 C-281.31216827 895.6861552 -281.80249542 895.22692668 -282.30768096 894.75378215 C-337.33496481 843.09275391 -344.90556681 761.28647579 -348.94684112 690.08288372 C-348.98545257 689.41442424 -349.02406402 688.74596477 -349.06384552 688.05724895 C-350.53458283 662.10494685 -350.97622959 636.12851194 -350.96722484 610.13979757 C-350.96701537 606.34109871 -350.97259008 602.54240673 -350.9772824 598.74371135 C-350.98547672 591.3458357 -350.98833212 583.94796802 -350.98889478 576.5500882 C-350.98937564 570.51201531 -350.99145817 564.47394498 -350.99459541 558.43587291 C-351.00337359 541.18033773 -351.00801959 523.92480869 -351.00726493 506.66927126 C-351.00722498 505.7451872 -351.00718502 504.82110314 -351.00714386 503.86901653 C-351.00710297 502.94375599 -351.00706209 502.01849546 -351.00701997 501.06519672 C-351.00661495 486.12587434 -351.01615572 471.18657733 -351.03028222 456.24726227 C-351.04479391 440.77386654 -351.05154432 425.30048305 -351.05068845 409.82708037 C-351.05036137 401.19402709 -351.05294426 392.56100063 -351.0638665 383.9279536 C-351.29600444 191.07281862 -351.29600444 191.07281862 -299.82184112 85.14538372 C-298.88404815 83.90595012 -298.88404815 83.90595012 -297.92730987 82.64147747 C-277.05278058 55.8598156 -249.50384947 36.95302205 -217.82184112 25.14538372 C-217.0134378 24.84293743 -216.20503448 24.54049114 -215.37213409 24.22887981 C-172.448612 8.45745047 -125.2063469 4.40792168 -79.82184112 1.95788372 C-79.14150817 1.92095409 -78.46117523 1.88402446 -77.76022613 1.84597576 C-51.8568115 0.48043697 -25.9357032 -0.00905239 0 0 Z " fill="#0077FF" transform="translate(350.8218411207199,-0.14538371562957764)"/>
<path d="M0 0 C36.3 0 72.6 0 110 0 C111.485 23.76 111.485 23.76 113 48 C114.45552756 62.42870803 116.37057928 76.37782884 119.47167969 90.50878906 C120.00594878 93.02805052 120.48066471 95.55298174 120.9453125 98.0859375 C130.45980154 148.06334501 152.74538753 197.06901547 188 234 C188.81210937 234.86496094 189.62421875 235.72992187 190.4609375 236.62109375 C203.03702414 249.66522245 218.19914808 259.94647031 234.5 267.75 C235.23428223 268.10263916 235.96856445 268.45527832 236.72509766 268.81860352 C243.70903468 272.05826876 250.65950198 274.37839357 258 277 C258 185.59 258 94.18 258 0 C291.99 0 325.98 0 361 0 C361 52.14 361 104.28 361 158 C404.95778957 147.65699069 440.72688172 124.28982392 467.71875 87.72119141 C468.99587049 86.00554746 470.30590228 84.32022697 471.625 82.63671875 C489.15111029 59.94363728 500.76893996 34.50494446 510.07373047 7.59277344 C510.98624784 5.03849445 511.99264573 2.51838569 513 0 C546.99 0 580.98 0 616 0 C609.5527896 64.47210396 564.97028076 130.08612027 516 171 C515.46697266 171.45213867 514.93394531 171.90427734 514.38476562 172.37011719 C502.63996637 182.30558251 490.2709466 191.19971975 477 199 C478.00675781 199.51046875 479.01351563 200.0209375 480.05078125 200.546875 C504.39755358 213.06044734 526.76775071 228.55770725 547 247 C547.68787598 247.62616211 548.37575195 248.25232422 549.08447266 248.89746094 C551.23106438 250.86058744 553.36791039 252.83363812 555.5 254.8125 C556.14670654 255.41054443 556.79341309 256.00858887 557.4597168 256.62475586 C561.36660313 260.29470778 564.95955965 264.1311412 568.45019531 268.19848633 C570.28576065 270.332172 572.20416695 272.38057554 574.125 274.4375 C600.81687349 304.12031347 640 358.69634177 640 400 C602.38 400 564.76 400 526 400 C524.68 395.71 523.36 391.42 522 387 C520.82407253 384.02870574 519.64044644 381.14609696 518.3125 378.25 C517.96928711 377.49396484 517.62607422 376.73792969 517.27246094 375.95898438 C508.4830772 356.85577094 497.90370655 338.86090108 484 323 C483.28457031 322.175 482.56914063 321.35 481.83203125 320.5 C479.59205502 317.9626818 477.30934249 315.47429552 475 313 C474.20335937 312.13761719 473.40671875 311.27523438 472.5859375 310.38671875 C442.91721222 279.41830611 402.81050044 262.97292863 361 257 C361 303.86 361 350.72 361 399 C326.19380134 399 292.95190817 398.94928977 259.35058594 390.57177734 C257.20115753 390.04893134 255.0507482 389.5830912 252.8828125 389.14453125 C229.62261072 384.33673318 207.21115734 375.51430195 186 365 C185.18063965 364.60377441 184.3612793 364.20754883 183.51708984 363.79931641 C160.27095063 352.52195862 138.73058767 337.38089793 119.9140625 319.703125 C117.67829534 317.62919622 115.4173245 315.63030953 113.10546875 313.64453125 C109.06035866 310.11844167 105.34285733 306.36277794 101.6875 302.4375 C101.03942383 301.74277588 100.39134766 301.04805176 99.72363281 300.33227539 C93.74282129 293.84567919 88.28717717 287.05615794 83 280 C82.10030613 278.82027764 81.20056599 277.64059056 80.30078125 276.4609375 C55.73053697 243.93193694 39.07857558 207.42159301 26 169 C25.37798706 167.20731689 25.37798706 167.20731689 24.7434082 165.37841797 C21.69871963 156.47748575 19.17563114 147.50989385 16.9375 138.375 C16.76569214 137.68034637 16.59388428 136.98569275 16.41687012 136.26998901 C13.74011399 125.42801112 11.3023053 114.57155006 9.43554688 103.55810547 C8.97964903 100.88047226 8.49729964 98.20826309 8.015625 95.53515625 C5.72618501 82.43502245 4.17513409 69.28515581 2.8125 56.0625 C2.72782471 55.24896057 2.64314941 54.43542114 2.5559082 53.597229 C0.70849669 35.68357981 0 18.06988708 0 0 Z " fill="#FEFEFF" transform="translate(162,292)"/>
</svg>
