<?xml version="1.0" standalone="no"?>
<!DOCTYPE svg PUBLIC "-//W3C//DTD SVG 20010904//EN"
 "http://www.w3.org/TR/2001/REC-SVG-20010904/DTD/svg10.dtd">
<svg version="1.0" xmlns="http://www.w3.org/2000/svg"
 width="960.000000pt" height="868.000000pt" viewBox="0 0 960.000000 868.000000"
 preserveAspectRatio="xMidYMid meet">

<g transform="translate(0.000000,868.000000) scale(0.100000,-0.100000)"
fill="#000000" stroke="none">
<path d="M2 8653 c3 -18 660 -887 1764 -2333 968 -1268 1772 -2321 1787 -2341
l27 -36 -1709 -1964 -1708 -1964 726 -3 c399 -1 731 0 738 2 6 3 595 672 1310
1488 714 816 1309 1496 1323 1511 l25 28 1159 -1515 1159 -1516 1479 0 c813 0
1478 2 1478 4 0 3 -846 1123 -1880 2490 -1034 1367 -1880 2490 -1880 2495 0 7
2989 3420 3203 3659 l20 22 -735 0 -736 0 -1227 -1385 -1227 -1386 -71 94
c-40 51 -511 675 -1047 1385 l-975 1291 -1504 0 -1503 1 4 -27z m2581 -820 c8
-10 1197 -1579 2641 -3488 l2626 -3470 -406 -3 c-224 -1 -408 -1 -409 0 -1 2
-1199 1567 -2661 3478 -1463 1911 -2663 3481 -2668 3488 -6 9 82 12 427 12
401 0 435 -1 450 -17z"/>
</g>
</svg>
