<?xml version="1.0" standalone="no"?>
<!DOCTYPE svg PUBLIC "-//W3C//DTD SVG 20010904//EN"
 "http://www.w3.org/TR/2001/REC-SVG-20010904/DTD/svg10.dtd">
<svg version="1.0" xmlns="http://www.w3.org/2000/svg"
 width="998.000000pt" height="998.000000pt" viewBox="0 0 998.000000 998.000000"
 preserveAspectRatio="xMidYMid meet">

<g transform="translate(0.000000,998.000000) scale(0.100000,-0.100000)"
fill="#000000" stroke="none">
<path d="M5410 9053 c-250 -20 -514 -67 -758 -134 -121 -34 -130 -41 -147
-116 -3 -18 -10 -33 -13 -33 -4 0 -29 15 -55 34 -56 40 -46 41 -223 -29 -244
-96 -556 -276 -746 -432 -74 -60 -73 -55 -28 -144 12 -22 19 -43 16 -46 -3 -3
-40 7 -82 22 l-76 28 -80 -79 c-44 -44 -121 -128 -170 -188 -89 -108 -281
-387 -293 -426 -5 -15 5 -34 39 -71 25 -28 46 -55 46 -60 0 -5 -38 -9 -83 -9
l-84 0 -38 -77 c-55 -113 -122 -280 -172 -428 -40 -119 -83 -270 -83 -293 0
-5 25 -26 55 -47 31 -21 54 -43 52 -49 -2 -6 -34 -21 -72 -33 -37 -13 -70 -25
-72 -27 -8 -7 -41 -227 -57 -376 -9 -80 -17 -217 -18 -305 l-3 -160 55 -11
c50 -9 56 -14 52 -43 -1 -4 -26 -24 -55 -44 l-53 -35 3 -63 c11 -191 60 -500
114 -714 43 -169 127 -418 146 -433 9 -6 29 -12 44 -12 24 0 34 10 70 73 23
39 57 95 75 123 24 37 43 88 68 187 38 153 106 307 174 397 39 51 42 59 42
120 0 69 23 269 41 360 18 93 69 260 111 365 153 389 444 726 821 954 181 109
422 211 616 261 195 50 468 67 649 41 172 -25 371 -99 452 -168 l40 -35 255
-1 254 -2 -26 20 -25 21 58 114 59 114 50 10 c48 10 52 14 82 71 18 33 33 63
33 66 0 16 -535 193 -610 201 -20 3 -29 -6 -53 -50 -21 -39 -34 -52 -46 -48
-9 3 -61 21 -117 40 -232 80 -524 101 -814 56 -144 -22 -372 -86 -514 -145
-16 -7 -17 -5 -10 16 4 13 8 33 8 44 1 11 12 28 26 37 46 33 6 18 -115 -40
-557 -271 -961 -725 -1189 -1337 -51 -136 -60 -141 -17 -8 58 178 165 395 277
563 299 450 716 771 1220 939 461 153 984 144 1350 -24 83 -38 472 -175 495
-175 9 1 5 9 -10 21 -24 19 -24 21 -7 52 9 18 26 46 37 62 11 17 43 68 71 115
73 125 149 221 267 344 228 234 481 393 804 507 37 13 66 28 64 34 -6 19 -173
126 -297 189 -415 212 -851 329 -1333 357 -197 12 -206 12 -238 -7 -19 -11
-40 -32 -47 -47 -7 -15 -16 -27 -21 -27 -4 0 -20 18 -37 40 -16 21 -33 41 -39
43 -5 1 -80 -3 -165 -10z m267 -1820 c-19 -43 -42 -103 -52 -133 -21 -65 -29
-77 -47 -63 -48 37 -279 98 -416 110 -89 7 -126 18 -116 34 5 9 -19 11 -92 6
l-99 -5 75 13 c159 29 393 12 555 -39 43 -14 79 -24 80 -23 0 1 17 37 37 80
28 56 43 77 57 77 10 0 24 7 31 15 25 31 21 5 -13 -72z m-2690 -1295 c-3 -8
-6 -5 -6 6 -1 11 2 17 5 13 3 -3 4 -12 1 -19z"/>
<path d="M5645 7239 c-4 -6 -5 -12 -2 -15 2 -3 7 2 10 11 7 17 1 20 -8 4z"/>
<path d="M2537 7862 c-24 -26 -21 -49 7 -67 47 -31 95 26 55 66 -24 24 -41 24
-62 1z"/>
<path d="M7264 7832 c-15 -9 -284 -342 -284 -350 1 -18 20 -33 38 -30 25 4
302 324 302 348 0 31 -31 48 -56 32z"/>
<path d="M2062 7477 c-60 -63 11 -162 93 -131 25 10 47 62 40 95 -13 58 -92
80 -133 36z"/>
<path d="M7268 7365 c-79 -57 -93 -80 -63 -105 13 -11 29 -3 101 46 73 50 85
62 82 84 -5 42 -37 35 -120 -25z"/>
<path d="M1510 7280 c-6 -11 -8 -25 -5 -31 15 -24 269 -219 285 -219 20 0 36
33 25 50 -16 27 -259 220 -275 220 -11 0 -24 -9 -30 -20z"/>
<path d="M8360 6999 c-420 -50 -701 -99 -780 -135 -93 -42 -164 -129 -185
-224 -13 -58 -7 -168 20 -356 44 -313 66 -384 142 -455 85 -81 172 -100 365
-80 189 21 667 90 732 107 161 41 247 136 270 296 15 103 -56 591 -99 682 -34
73 -108 140 -176 160 -57 17 -167 19 -289 5z m-202 -440 c227 -87 273 -109
270 -128 -6 -29 -362 -303 -384 -294 -18 7 -19 10 -49 232 -30 218 -31 251
-10 251 9 0 86 -27 173 -61z"/>
<path d="M6340 6820 c16 -10 20 -36 8 -62 -6 -12 -1 -24 14 -39 l23 -21 -40 7
c-112 20 -176 25 -347 25 -392 0 -851 -90 -1253 -247 -105 -41 -339 -154 -442
-213 -56 -32 -71 -37 -66 -23 3 10 3 15 -2 11 -10 -9 -56 42 -49 54 3 5 10 5
16 2 7 -5 8 -2 3 6 -6 9 -2 10 15 5 16 -5 21 -4 18 6 -3 8 5 22 16 32 37 34
-80 -35 -175 -102 -199 -141 -379 -314 -493 -474 -63 -89 -74 -78 -12 13 166
243 479 509 816 694 46 26 85 48 86 49 1 1 -37 2 -84 3 -76 0 -92 4 -128 26
-59 38 -76 69 -72 134 1 30 2 54 0 54 -19 0 -181 -73 -266 -120 -98 -53 -137
-66 -121 -39 18 28 -11 -1 -76 -77 -71 -83 -145 -144 -174 -144 -49 0 -264
-305 -348 -495 -100 -223 -171 -512 -179 -726 l-3 -76 50 43 c27 24 73 56 102
71 29 16 51 33 49 38 -3 6 -12 34 -22 64 -43 141 29 322 152 381 65 32 158 25
216 -15 49 -35 87 -104 88 -157 0 -37 -1 -38 -35 -38 -20 0 -37 -6 -39 -12
-34 -124 -61 -181 -45 -95 4 23 5 44 3 46 -2 2 -4 0 -4 -6 0 -6 -12 -13 -28
-15 -27 -4 -27 -4 -27 57 0 160 -125 195 -213 60 -10 -17 -11 -16 0 5 6 14 15
43 19 65 l7 40 -24 -30 c-34 -43 -64 -139 -64 -206 0 -62 21 -132 48 -163 16
-18 16 -19 -2 -9 -40 22 -214 -118 -296 -237 -213 -311 -263 -791 -123 -1170
19 -52 43 -109 53 -126 18 -31 18 -31 -20 -110 -21 -43 -34 -81 -29 -82 5 -2
9 -10 9 -17 0 -7 5 -15 11 -17 14 -5 -88 -147 -154 -217 l-52 -54 33 7 c19 3
70 22 115 41 55 23 74 28 57 15 -23 -17 -23 -19 -4 -14 15 4 26 -1 37 -16 15
-21 16 -21 48 -5 19 10 56 33 82 52 70 49 70 33 0 -21 -73 -58 -185 -117 -287
-151 -71 -24 -364 -95 -393 -95 -6 0 -23 -4 -38 -10 -22 -8 -24 -13 -15 -30
23 -43 159 -92 350 -124 330 -56 791 -44 1150 31 199 41 180 41 174 -3 -3 -22
-7 -51 -9 -66 -4 -25 -3 -27 14 -16 34 21 48 -3 43 -71 -4 -58 -4 -60 26 -75
18 -9 56 -16 90 -16 32 0 63 -5 70 -12 7 -7 12 -8 12 -4 0 9 77 -85 103 -126
14 -23 22 -75 30 -213 0 -6 -3 -23 -7 -38 -7 -28 -4 -30 84 -70 l90 -42 0 -68
c0 -37 -4 -66 -9 -63 -12 8 -44 -31 -36 -43 4 -8 -32 -11 -115 -11 -148 0
-179 -11 -210 -75 -28 -57 -19 -86 44 -154 28 -30 45 -51 39 -47 -9 5 -13 0
-13 -17 0 -18 33 -58 124 -148 68 -68 139 -138 158 -155 43 -40 108 -133 108
-156 0 -10 1 -18 3 -18 1 0 54 -7 118 -14 l116 -14 88 -71 c136 -109 175 -109
313 4 66 55 99 75 120 75 37 0 144 21 138 28 -10 9 18 47 107 149 50 57 96
103 103 103 19 0 105 92 100 107 -3 8 40 53 104 110 60 53 114 109 121 125 15
38 5 95 -22 124 -33 35 -79 44 -221 44 -71 0 -128 4 -128 8 0 4 12 8 26 7 22
0 27 5 29 25 2 14 6 47 10 74 6 36 5 47 -3 42 -7 -4 -12 -5 -12 -2 0 2 37 24
82 48 45 24 99 59 120 79 l38 36 0 105 c0 112 3 118 51 118 35 0 144 43 196
77 56 37 110 98 135 153 17 38 46 125 78 238 11 39 24 72 28 72 4 0 16 -14 26
-30 117 -199 429 -430 579 -430 52 0 80 14 45 23 -12 4 -40 7 -60 7 -36 0 -37
1 -45 48 -13 78 -10 664 5 782 20 157 67 440 110 660 l38 196 -43 54 c-86 109
-131 231 -138 380 -4 76 -3 80 5 35 18 -87 21 -99 28 -89 4 5 19 15 35 21 21
10 27 10 29 0 1 -6 5 60 9 148 8 182 23 251 74 334 68 111 78 235 24 314 -100
145 -275 243 -421 235 -44 -2 -62 0 -52 5 17 9 135 4 187 -9 22 -5 27 -3 27
13 0 11 -11 37 -25 57 l-25 37 22 -7 c13 -4 29 -9 36 -11 6 -3 12 -3 12 -1 0
19 -57 269 -85 368 -19 69 -39 153 -44 188 -5 34 -13 67 -17 73 -13 22 32 -10
74 -52 23 -23 45 -53 48 -68 7 -35 25 -104 62 -236 17 -60 43 -162 58 -225 26
-115 46 -161 84 -195 18 -17 20 -17 20 -1 0 20 -73 316 -100 404 -16 51 -18
72 -10 108 10 43 -5 171 -28 249 -23 77 -92 178 -109 161 -10 -10 23 -102 46
-129 32 -39 13 -26 -81 57 -65 58 -68 61 -74 118 -6 57 -8 59 -61 94 -72 48
-164 89 -269 119 -91 26 -119 31 -94 15z m-100 -188 c14 -6 41 -15 60 -21 l35
-11 -42 4 c-24 2 -43 0 -43 -5 0 -5 8 -9 18 -10 10 0 12 -3 5 -6 -17 -6 -16
-45 2 -157 49 -303 87 -595 116 -897 l12 -127 37 -11 c55 -16 57 -15 63 42 3
28 11 69 17 89 13 44 64 114 100 136 19 12 17 8 -9 -19 -48 -48 -87 -137 -96
-215 l-7 -66 -51 7 c-63 8 -229 44 -244 53 -7 4 -25 43 -41 87 -101 277 -308
397 -727 421 -249 15 -605 -52 -867 -162 -66 -28 -75 -29 -59 -10 8 10 6 20
-10 41 -18 22 -20 29 -8 36 8 5 18 9 23 9 5 0 7 3 4 6 -3 3 -63 -22 -134 -55
-70 -34 -129 -60 -130 -58 -2 1 59 38 134 81 75 43 124 75 109 72 -19 -5 -26
-3 -22 4 3 5 2 10 -3 10 -6 0 -15 30 -21 66 -7 36 -25 95 -42 130 -17 35 -31
72 -32 83 -1 18 -3 19 -37 5 -32 -13 -33 -13 -15 2 11 8 72 44 135 79 350 193
836 338 1260 375 129 11 476 6 510 -8z m-2365 -1067 c-27 -13 -54 -24 -60 -24
-5 1 13 11 40 24 28 13 55 24 60 24 6 -1 -12 -11 -40 -24z m967 -47 c-71 -90
-113 -180 -91 -194 5 -3 31 8 57 25 167 107 405 164 597 143 l80 -9 -85 -2
c-85 -3 -89 -4 -37 -15 23 -6 27 -10 21 -28 -13 -41 -105 -108 -149 -108 -28
0 -139 -53 -151 -71 -5 -9 -2 -10 12 -4 71 30 127 44 179 45 152 0 254 -70
298 -207 23 -72 22 -73 -25 -26 -128 125 -340 149 -526 61 -35 -16 -84 -49
-109 -74 -39 -37 -44 -46 -33 -59 17 -21 39 -19 105 10 199 89 401 71 559 -49
68 -53 78 -49 70 24 -7 66 1 84 42 94 44 11 93 50 109 86 18 40 11 87 -24 180
-12 30 -20 63 -17 72 2 11 -5 20 -23 27 -21 8 -18 9 20 4 42 -5 47 -3 72 27
15 17 27 37 27 43 0 6 29 -18 65 -53 36 -35 65 -68 65 -73 0 -4 19 -39 42 -77
42 -72 74 -102 143 -137 61 -32 79 -57 82 -114 1 -34 13 -75 37 -125 20 -41
39 -74 42 -74 3 0 31 7 61 16 79 23 193 16 257 -16 38 -19 99 -78 122 -118 1
-2 10 1 21 7 10 6 32 16 48 23 l30 12 -32 4 c-34 3 -39 12 -47 77 -7 58 -18
110 -35 170 -54 181 -47 225 27 178 l27 -17 -20 24 -20 24 32 -23 c36 -25 60
-56 93 -120 l22 -43 -22 -120 c-30 -162 -25 -258 18 -351 43 -92 62 -171 62
-258 0 -74 -20 -171 -28 -136 -7 34 -29 18 -72 -50 -17 -29 -36 -53 -41 -53
-4 0 -15 -26 -24 -57 -28 -103 -79 -222 -245 -568 -38 -80 -70 -150 -97 -215
-8 -19 -25 -57 -38 -85 -13 -27 -34 -75 -46 -105 -11 -30 -27 -62 -35 -71 -8
-9 -11 -19 -7 -22 3 -4 1 -7 -5 -7 -7 0 -12 -9 -12 -19 0 -11 -5 -23 -10 -26
-6 -4 -8 -10 -6 -14 3 -4 -8 -20 -25 -35 -16 -15 -29 -35 -29 -43 0 -9 -6 -13
-15 -10 -8 4 -17 2 -21 -4 -3 -6 -13 -8 -21 -5 -9 4 -24 -3 -35 -16 -15 -17
-21 -19 -27 -9 -7 11 -13 10 -34 -4 -16 -10 -31 -13 -39 -9 -7 5 -22 7 -34 6
-11 -2 -28 6 -39 17 -15 18 -19 19 -29 6 -10 -13 -14 -13 -38 -1 -28 15 -28
14 -28 -15 0 -16 -4 -29 -10 -29 -5 0 -10 5 -10 11 0 6 -6 9 -14 6 -8 -3 -17
-1 -19 6 -3 9 -8 9 -17 1 -14 -14 -53 -6 -44 8 4 6 -2 7 -17 3 -38 -13 -69
-14 -69 -3 0 5 -6 8 -12 6 -7 -3 -18 1 -25 8 -7 6 -26 11 -42 10 -24 -2 -31 3
-36 21 -3 13 -10 21 -15 18 -6 -3 -10 -1 -10 5 0 7 -6 10 -13 7 -8 -3 -20 3
-28 14 -7 10 -18 19 -25 19 -6 0 -21 9 -34 20 -13 11 -26 20 -30 20 -4 0 -31
23 -60 50 -29 28 -56 50 -61 50 -5 0 -9 5 -9 10 0 6 -4 16 -10 23 -47 57 -60
76 -60 86 0 6 -4 11 -10 11 -11 0 -50 73 -50 95 0 8 -6 15 -12 15 -27 0 -138
272 -138 337 0 13 -7 53 -16 89 -15 57 -15 80 -5 177 7 62 12 146 12 187 0 67
1 71 10 40 60 -209 114 -333 197 -450 171 -241 452 -392 737 -394 136 -1 193
16 265 81 66 59 108 132 227 393 78 172 106 224 141 258 48 49 75 52 80 9 2
-15 7 -27 12 -27 5 0 27 27 49 61 34 52 38 64 30 91 -12 44 -36 76 -72 98 -49
31 -60 27 -52 -19 8 -46 -14 -96 -45 -106 -12 -4 -38 -4 -58 -1 -20 3 -91 12
-157 21 -534 72 -887 143 -1072 216 -77 31 -83 43 -43 84 18 18 46 39 61 46
66 27 14 45 -105 36 -44 -3 -103 -14 -129 -23 -37 -13 -54 -14 -72 -6 -14 6
-46 14 -73 18 l-49 6 -6 -33 c-24 -132 -39 -422 -34 -654 6 -317 37 -560 102
-795 12 -47 33 -125 46 -173 19 -71 29 -92 49 -103 25 -13 24 -13 -16 -14
l-40 0 -16 63 c-9 34 -27 105 -41 157 -55 210 -104 524 -120 775 -3 48 -3 48
-5 -11 -2 -60 -2 -61 -32 -62 -28 -1 -30 2 -30 34 0 20 5 45 11 56 8 15 8 27
-2 44 -20 38 -31 28 -27 -26 1 -28 -1 -50 -6 -50 -10 0 0 452 12 599 9 99 8
101 -80 130 -70 24 -143 62 -140 74 1 4 2 29 2 57 0 43 2 49 18 44 9 -4 -8 11
-38 32 -117 81 -193 183 -240 324 -30 90 -39 296 -16 393 14 61 59 167 71 167
3 0 -4 -23 -15 -51 -52 -132 -60 -313 -20 -453 26 -91 27 -93 88 -98 7 -1 20
-15 29 -32 29 -59 125 -176 173 -211 51 -38 135 -78 150 -73 6 2 -4 19 -20 38
-16 19 -30 39 -30 44 0 5 -20 30 -44 56 -62 66 -79 130 -78 279 0 65 5 118 11
124 6 6 11 18 11 26 0 54 116 236 197 306 53 47 139 103 161 105 2 0 -19 -28
-46 -62z m-1403 -4 c29 -37 26 -56 -14 -81 -41 -27 -62 -29 -87 -6 -27 24 -23
68 8 92 36 28 68 26 93 -5z m331 6 c-8 -5 -22 -9 -30 -9 -10 0 -8 3 5 9 27 12
43 12 25 0z m2653 -77 c4 -19 2 -33 -3 -33 -6 0 -10 17 -10 37 0 43 5 41 13
-4z m-3125 -103 c10 -21 31 -42 52 -52 l35 -17 -32 -1 c-62 0 -121 82 -98 137
6 16 8 15 17 -7 5 -14 17 -41 26 -60z m3432 -96 c0 -2 -9 0 -20 6 -11 6 -20
13 -20 16 0 2 9 0 20 -6 11 -6 20 -13 20 -16z m-3100 -65 c19 -12 51 -34 72
-50 22 -18 54 -32 83 -36 42 -5 52 -12 91 -62 57 -72 127 -215 154 -311 21
-77 38 -234 23 -214 -4 6 -25 13 -45 16 l-38 4 0 -131 c0 -71 -7 -173 -15
-225 -16 -97 -54 -254 -61 -247 -2 2 5 44 17 93 26 114 38 412 19 518 -31 184
-86 337 -163 457 -38 60 -123 152 -172 187 -39 28 -11 29 35 1z m2957 -80 c46
-17 102 -79 123 -136 11 -30 20 -56 20 -59 0 -4 -17 9 -37 26 -75 66 -176 89
-292 66 -42 -8 -44 -7 -28 9 9 9 17 24 17 33 1 24 22 50 51 61 33 13 111 13
146 0z m-2473 -319 c34 -86 54 -166 57 -230 4 -117 -13 -116 -31 1 -13 92 -48
218 -85 312 l-25 62 25 -30 c14 -16 40 -68 59 -115z m-944 -127 c0 -2 -18 10
-40 27 -22 17 -40 34 -40 37 0 2 18 -10 40 -27 22 -17 40 -34 40 -37z m1277
-196 c43 -25 109 -58 147 -74 l69 -28 -8 -120 c-22 -333 -23 -343 -20 -113 l3
226 -25 7 c-90 22 -282 148 -332 216 -20 28 -14 25 31 -17 31 -28 92 -72 135
-97z m-1076 46 c13 -16 12 -17 -3 -4 -10 7 -18 15 -18 17 0 8 8 3 21 -13z
m229 -165 c0 -15 -25 -8 -37 11 -11 17 -10 18 13 7 13 -6 24 -14 24 -18z
m1740 -132 c104 -4 269 -34 312 -57 10 -5 31 -9 47 -9 16 0 100 -14 188 -31
87 -17 190 -35 228 -39 70 -8 256 -47 264 -55 10 -11 -23 -118 -44 -143 -23
-27 -25 -27 -132 -25 -121 2 -340 33 -453 64 -41 11 -98 24 -127 29 -67 10
-120 28 -159 51 -17 10 -39 16 -51 13 -29 -8 -87 12 -123 43 -16 13 -34 22
-39 19 -5 -4 -20 -1 -33 4 -21 10 -23 15 -18 73 4 55 8 62 30 68 14 4 32 5 40
2 8 -3 40 -6 70 -7z m-643 -568 c-2 -13 -4 -5 -4 17 -1 22 1 32 4 23 2 -10 2
-28 0 -40z m-715 -215 c125 -162 388 -337 688 -458 147 -59 166 -90 24 -41
-97 34 -185 71 -276 117 -44 22 -84 37 -90 33 -6 -4 -8 -3 -5 3 4 6 -26 32
-66 58 -112 75 -197 146 -263 221 -58 66 -104 130 -104 147 0 17 51 -28 92
-80z m321 -438 c33 -20 75 -42 94 -50 20 -9 34 -18 31 -21 -4 -3 -24 4 -46 15
-63 32 -158 91 -147 91 6 0 36 -16 68 -35z m252 -125 c22 -10 33 -19 25 -19
-8 0 -31 8 -50 19 -45 24 -28 24 25 0z m1005 -380 c6 -11 9 -20 7 -20 -2 0
-12 9 -22 20 -10 11 -13 20 -7 20 6 0 16 -9 22 -20z"/>
<path d="M5733 4587 c-17 -36 -16 -70 1 -110 17 -41 178 -182 259 -226 34 -18
78 -42 97 -52 45 -24 66 -23 175 9 76 23 92 32 112 61 13 19 23 43 23 53 0 11
20 39 44 63 27 26 49 58 55 81 13 47 15 125 2 106 -15 -24 -140 -34 -248 -21
-127 16 -204 15 -256 -4 -23 -9 -81 -18 -128 -22 -83 -6 -86 -6 -101 17 -9 14
-18 35 -20 48 l-3 24 -12 -27z"/>
<path d="M5654 3118 c-40 -13 -60 -44 -42 -65 47 -57 125 -79 312 -89 105 -6
109 -6 130 18 37 41 66 87 66 102 0 26 -36 39 -73 25 -30 -11 -176 -4 -322 15
-22 2 -54 0 -71 -6z"/>
<path d="M1252 6734 c-101 -27 -186 -94 -230 -181 -32 -62 -44 -139 -77 -508
-17 -186 -12 -243 27 -324 43 -89 137 -158 248 -180 30 -6 174 -20 319 -32
248 -20 269 -20 329 -5 147 36 244 143 272 298 11 61 50 506 50 571 0 66 -36
160 -81 211 -54 61 -141 102 -244 116 -115 14 -495 50 -530 49 -16 0 -54 -7
-83 -15z m464 -194 l41 0 17 -62 c20 -71 74 -134 125 -144 31 -6 31 -7 31 -68
0 -84 -5 -89 -63 -72 -26 8 -63 24 -83 35 -20 12 -38 21 -39 19 -1 -2 -10 -72
-19 -155 -9 -84 -24 -172 -32 -195 -32 -90 -132 -158 -235 -158 -147 0 -263
136 -245 288 16 133 124 228 252 220 56 -3 61 -14 49 -95 -6 -42 -7 -43 -45
-43 -100 0 -147 -76 -103 -167 32 -68 123 -80 178 -23 25 26 28 39 36 127 48
527 45 506 73 499 11 -3 39 -6 62 -6z"/>
<path d="M7151 5510 c0 -8 4 -22 9 -30 12 -18 12 -2 0 25 -6 13 -9 15 -9 5z"/>
<path d="M8630 5434 c-58 -13 -134 -29 -170 -35 -72 -14 -90 -23 -90 -49 0
-44 20 -44 225 -5 209 40 229 50 205 95 -13 25 -35 24 -170 -6z"/>
<path d="M931 5126 c-7 -8 -10 -24 -6 -36 6 -20 12 -20 188 -18 l182 3 0 30 0
30 -176 3 c-145 2 -178 0 -188 -12z"/>
<path d="M8010 4809 c-13 -10 -13 -10 0 -6 10 3 16 -2 16 -13 0 -10 -3 -18 -6
-18 -3 1 -13 -2 -22 -6 -9 -4 -26 -2 -38 4 -19 10 -28 7 -63 -21 -40 -32 -38
-23 8 30 l20 24 -25 -16 c-40 -27 -88 -95 -111 -155 -11 -32 -50 -172 -86
-312 -58 -229 -64 -262 -60 -327 8 -115 61 -205 151 -258 38 -22 201 -75 232
-75 9 0 14 12 14 38 0 20 23 125 50 232 31 124 45 197 39 201 -6 3 -35 12 -65
18 -30 7 -54 18 -54 24 0 7 7 45 17 85 19 80 18 80 101 58 40 -11 54 -12 57
-3 2 7 13 48 25 92 25 96 56 145 112 182 34 23 52 28 102 27 63 0 158 -23 189
-46 18 -13 18 -16 1 -78 -24 -90 -24 -89 -93 -71 -54 14 -61 14 -84 -2 -18
-12 -32 -35 -42 -72 -24 -81 -21 -87 59 -107 38 -10 71 -20 74 -23 5 -5 -41
-127 -57 -154 -6 -10 -22 -9 -71 4 -34 9 -65 14 -67 11 -4 -4 -97 -348 -120
-442 -4 -19 4 -22 107 -44 187 -38 302 -13 389 86 55 63 73 105 125 308 99
377 109 455 72 541 -13 29 -13 29 -10 -20 l4 -50 -13 40 c-23 68 -37 88 -52
75 -21 -18 -55 9 -55 44 0 26 2 27 18 15 15 -13 16 -12 3 4 -33 41 -74 44 -84
5 -5 -17 -11 -19 -34 -13 -15 4 -41 8 -57 9 -18 2 -33 10 -37 22 -7 18 -8 18
-8 -1 -1 -17 -3 -17 -11 -5 -8 12 -10 9 -10 -12 0 -21 -5 -28 -20 -28 -26 0
-70 21 -64 31 2 4 -3 12 -13 17 -23 12 -75 -5 -54 -17 9 -6 2 -10 -20 -13 -32
-5 -53 7 -43 24 4 7 -42 55 -90 96 -18 14 -56 16 -56 2 0 -19 -37 -10 -65 16
-15 14 -29 23 -32 20 -3 -3 -14 4 -26 15 -23 21 -45 24 -67 8z m585 -209 c3
-5 1 -10 -4 -10 -6 0 -11 5 -11 10 0 6 2 10 4 10 3 0 8 -4 11 -10z"/>
<path d="M1455 4750 c-312 -47 -371 -67 -450 -151 -112 -119 -117 -216 -39
-684 28 -171 52 -256 65 -233 5 8 5 37 1 64 -12 81 -8 89 54 104 29 7 54 18
54 24 1 6 7 -2 15 -19 l15 -30 -5 30 c-25 147 -55 392 -55 445 0 75 29 148 76
192 54 51 115 69 344 101 249 35 295 32 373 -26 71 -54 93 -112 127 -342 16
-110 30 -223 30 -251 0 -138 -93 -244 -241 -273 -71 -14 -78 -23 -11 -14 26 3
44 2 40 -2 -4 -4 5 -19 18 -34 25 -25 48 -70 41 -77 -2 -2 -35 -12 -73 -21
l-69 -18 51 -3 c61 -3 165 19 229 49 107 50 185 184 185 316 0 64 -61 517 -81
608 -26 112 -93 201 -191 251 -83 43 -176 42 -503 -6z"/>
<path d="M8508 4733 c6 -2 18 -2 25 0 6 3 1 5 -13 5 -14 0 -19 -2 -12 -5z"/>
<path d="M1525 4500 c-302 -45 -331 -67 -321 -240 5 -100 40 -317 61 -385 12
-35 13 -37 14 -12 1 17 6 27 17 27 23 0 104 39 104 51 0 5 19 -3 43 -20 55
-38 112 -52 173 -45 31 4 44 2 36 -4 -10 -7 -11 -14 -1 -35 7 -15 17 -27 22
-27 5 0 5 -6 -2 -13 -9 -11 7 -11 89 -1 113 15 149 30 182 76 20 29 23 45 23
123 0 80 -17 219 -46 372 -18 92 -72 150 -149 158 -25 2 -135 -9 -245 -25z
m299 -51 c31 -24 33 -52 6 -79 -24 -24 -57 -26 -82 -3 -24 21 -23 58 2 83 25
25 41 25 74 -1z m-163 -90 c196 -59 213 -357 25 -445 -140 -65 -292 11 -327
164 -42 181 123 334 302 281z"/>
<path d="M1543 4273 c-35 -7 -80 -55 -94 -101 -25 -83 35 -170 124 -179 117
-12 199 122 135 217 -38 56 -94 77 -165 63z"/>
<path d="M7244 4171 c-6 -28 -8 -30 -20 -14 -11 15 -16 16 -33 6 -28 -17 -31
-17 -32 10 -3 64 -84 -333 -124 -604 -13 -96 -20 -218 -8 -149 3 14 9 30 15
35 7 7 9 7 5 0 -3 -6 -2 -17 3 -25 5 -8 5 -19 0 -25 -10 -12 8 -38 33 -48 13
-5 17 -19 18 -59 1 -32 8 9 20 105 19 164 59 400 110 646 17 79 28 146 25 149
-3 3 -9 -9 -12 -27z m-14 -63 c0 -13 -3 -33 -6 -46 l-6 -22 -19 21 c-22 26
-22 25 -9 50 15 26 40 24 40 -3z m-103 -560 c-3 -7 -5 -2 -5 12 0 14 2 19 5
13 2 -7 2 -19 0 -25z"/>
<path d="M7006 3318 c-5 -42 -6 -82 -3 -90 6 -18 20 112 15 143 -2 13 -8 -11
-12 -53z"/>
<path d="M7092 3180 c0 -19 2 -27 5 -17 2 9 2 25 0 35 -3 9 -5 1 -5 -18z"/>
<path d="M2735 3180 c-22 -11 -32 -18 -22 -15 13 3 17 -2 17 -26 0 -27 3 -30
23 -23 12 3 38 15 57 25 30 15 32 18 13 19 -13 0 -23 5 -23 10 0 6 -8 10 -17
10 -15 0 -16 2 -3 10 26 17 -4 10 -45 -10z"/>
<path d="M7986 3154 c-3 -9 -6 -20 -6 -25 0 -5 60 -57 133 -114 100 -80 138
-105 157 -103 20 2 25 9 25 29 0 22 -22 43 -132 128 -130 100 -165 116 -177
85z"/>
<path d="M1695 3055 c-71 -52 -133 -95 -137 -95 -4 0 -10 -11 -14 -25 -7 -28
10 -55 34 -55 9 0 80 48 159 108 123 92 143 111 141 132 -5 50 -44 36 -183
-65z"/>
<path d="M2566 3071 c-16 -18 -15 -18 18 -7 22 7 30 13 23 18 -17 11 -22 10
-41 -11z"/>
<path d="M7572 2868 c-35 -35 14 -102 57 -79 45 25 33 91 -17 91 -16 0 -33 -5
-40 -12z"/>
<path d="M2182 2558 c-28 -28 -3 -88 37 -88 22 0 51 30 51 53 0 38 -61 62 -88
35z"/>
<path d="M5819 1533 c-13 -16 -12 -17 4 -4 9 7 17 15 17 17 0 8 -8 3 -21 -13z"/>
</g>
</svg>
